<svg width="340" height="101" viewBox="0 0 340 101" fill="none" xmlns="http://www.w3.org/2000/svg">
<path d="M10.285 35.49V46.49H0V7.99H19.195C28.435 7.99 35.145 12.28 35.145 21.575C35.145 31.145 27.72 35.49 19.085 35.49H10.285ZM19.195 16.625H10.285V27.075H19.14C22.935 27.02 24.86 24.325 24.86 21.685C24.86 19.1 22.99 16.625 19.195 16.625Z" fill="white"/>
<path d="M39.2653 7.99H59.2853C62.6403 7.99 67.1503 8.705 70.3953 11.29C73.3103 13.655 74.9053 17.45 74.9053 20.915C74.9053 26.525 71.0003 31.805 65.4453 32.96L75.8953 46.105V46.49H63.9053L54.3353 33.565H49.5503V46.49H39.2653V7.99ZM49.5503 25.205H59.5053C66.2703 25.205 66.3253 16.625 59.2853 16.625H49.5503V25.205Z" fill="white"/>
<path d="M78.598 27.13C78.598 0.344999 120.178 0.290001 120.178 27.13C120.178 54.245 78.598 54.19 78.598 27.13ZM109.728 27.13C109.728 12.445 89.048 12.39 89.048 27.13C89.048 42.035 109.728 41.98 109.728 27.13Z" fill="white"/>
<path d="M116.921 8.43V7.99H128.746L139.746 22.565L150.691 7.99H162.571V8.485L144.916 31.53V46.49H134.576V31.53L116.921 8.43Z" fill="white"/>
<path d="M174.151 16.57V23.005H194.941V31.64H174.151V37.855H195.821V46.49H164.086V7.99H195.821V16.57H174.151Z" fill="white"/>
<path d="M220.007 47.425C207.962 47.425 199.382 38.9 199.382 27.13C199.382 15.415 207.962 7 220.007 7C227.487 7 235.572 10.19 238.707 20.145L229.962 23.225C227.377 17.395 223.527 16.185 220.007 16.185C206.422 16.185 206.587 38.295 220.007 38.295C223.582 38.295 227.157 37.47 229.687 31.53L238.927 34.445C235.077 44.785 227.597 47.425 220.007 47.425Z" fill="white"/>
<path d="M278.129 16.625H264.324V46.49H253.984V16.625H240.179V7.99H278.129V16.625Z" fill="white"/>
<path d="M82.4605 62.625H68.6555V92.49H58.3155V62.625H44.5105V53.99H82.4605V62.625Z" fill="white"/>
<path d="M90.9666 84.845L87.0616 92.49H76.2816V91.775L95.4766 53.77H103.782L123.032 91.995V92.49H111.922L108.017 84.845H90.9666ZM95.2566 76.265H103.782L102.462 73.57L99.6016 65.87L96.6866 73.35L95.2566 76.265Z" fill="white"/>
<path d="M136.455 53.99V83.47H157.685V92.49H126.005V53.99H136.455Z" fill="white"/>
<path d="M171.143 62.57V69.005H191.933V77.64H171.143V83.855H192.813V92.49H161.078V53.99H192.813V62.57H171.143Z" fill="white"/>
<path d="M207.209 53.99L226.239 76.1L226.789 76.87L226.679 75.77V53.99H236.744V92.49H227.395L208.639 70.27V92.49H198.519V53.99H207.209Z" fill="white"/>
<path d="M278.129 62.625H264.324V92.49H253.984V62.625H240.179V53.99H278.129V62.625Z" fill="white"/>
<g filter="url(#filter0_i_34_19)">
<rect x="286" width="54" height="99" rx="27" fill="#56A9ED"/>
</g>
<g filter="url(#filter1_di_34_19)">
<rect x="291" y="49" width="44" height="44" rx="22" fill="white" fill-opacity="0.94" shape-rendering="crispEdges"/>
</g>
<defs>
<filter id="filter0_i_34_19" x="286" y="0" width="54" height="99" filterUnits="userSpaceOnUse" color-interpolation-filters="sRGB">
<feFlood flood-opacity="0" result="BackgroundImageFix"/>
<feBlend mode="normal" in="SourceGraphic" in2="BackgroundImageFix" result="shape"/>
<feColorMatrix in="SourceAlpha" type="matrix" values="0 0 0 0 0 0 0 0 0 0 0 0 0 0 0 0 0 0 127 0" result="hardAlpha"/>
<feOffset/>
<feGaussianBlur stdDeviation="12.05"/>
<feComposite in2="hardAlpha" operator="arithmetic" k2="-1" k3="1"/>
<feColorMatrix type="matrix" values="0 0 0 0 0 0 0 0 0 0 0 0 0 0 0 0 0 0 1 0"/>
<feBlend mode="normal" in2="shape" result="effect1_innerShadow_34_19"/>
</filter>
<filter id="filter1_di_34_19" x="287" y="48" width="52" height="53" filterUnits="userSpaceOnUse" color-interpolation-filters="sRGB">
<feFlood flood-opacity="0" result="BackgroundImageFix"/>
<feColorMatrix in="SourceAlpha" type="matrix" values="0 0 0 0 0 0 0 0 0 0 0 0 0 0 0 0 0 0 127 0" result="hardAlpha"/>
<feOffset dy="4"/>
<feGaussianBlur stdDeviation="2"/>
<feComposite in2="hardAlpha" operator="out"/>
<feColorMatrix type="matrix" values="0 0 0 0 0 0 0 0 0 0 0 0 0 0 0 0 0 0 0.73 0"/>
<feBlend mode="normal" in2="BackgroundImageFix" result="effect1_dropShadow_34_19"/>
<feBlend mode="normal" in="SourceGraphic" in2="effect1_dropShadow_34_19" result="shape"/>
<feColorMatrix in="SourceAlpha" type="matrix" values="0 0 0 0 0 0 0 0 0 0 0 0 0 0 0 0 0 0 127 0" result="hardAlpha"/>
<feOffset dy="-1"/>
<feGaussianBlur stdDeviation="2.55"/>
<feComposite in2="hardAlpha" operator="arithmetic" k2="-1" k3="1"/>
<feColorMatrix type="matrix" values="0 0 0 0 0 0 0 0 0 0 0 0 0 0 0 0 0 0 0.69 0"/>
<feBlend mode="normal" in2="shape" result="effect2_innerShadow_34_19"/>
</filter>
</defs>
</svg>
