<svg width="696" height="268" viewBox="0 0 696 268" fill="none" xmlns="http://www.w3.org/2000/svg">
<path d="M676.113 46.5545L675.908 48.9021C675.586 52.6507 674.381 56.0295 672.248 59.1534C672.134 59.3208 671.894 59.3131 671.79 59.1393C665.824 49.7488 658.076 43.0395 648.775 39.2294C640.668 35.9069 632.65 35.15 624.94 36.9716C616.717 38.9087 610.931 43.6424 607.75 51.0445C604.402 58.8314 605.197 66.6696 610.11 74.3539C614.433 81.1273 620.925 85.938 629.404 88.6576C638.816 91.6768 648.566 92.0288 658.443 89.6916C659.14 89.5265 659.793 90.1111 659.65 90.8134C658.397 96.9453 654.793 103.678 647.582 107.9C638.128 113.429 628.93 113.314 620.219 107.554C609.7 100.588 606.082 90.4151 609.482 77.3429L609.85 75.9247C609.982 75.4158 609.698 74.8916 609.199 74.7249L593.014 69.3146C592.498 69.1422 591.939 69.4136 591.756 69.9255L591.175 71.5444C591.124 71.6855 591.086 71.801 591.047 71.9036C587.737 82.3203 588.058 92.6216 592.009 102.525C599.001 120.049 615.883 131.107 634.151 131.107C637.114 131.107 640.129 130.812 643.131 130.209C656.742 127.464 667.133 119.831 674.022 107.516C678.817 98.9318 680.686 89.7554 679.592 80.2286C679.552 79.886 679.689 79.5451 679.954 79.3241C688.672 72.0505 693.774 62.7557 695.112 51.6474C695.176 51.0701 695.202 50.48 695.214 49.8899C695.214 49.6718 695.214 49.4538 695.24 49.2228L695.311 47.5847C695.335 47.0161 694.881 46.5417 694.312 46.5417H676.126C676.119 46.5417 676.113 46.5474 676.113 46.5545ZM652.008 71.1467C645.889 72.25 640.321 71.9036 634.959 70.082C630.982 68.735 628.134 66.6054 626.274 63.6036C624.696 61.0507 625.12 59.4985 625.658 58.4209C626.428 56.8943 627.775 56.0733 630.148 55.6756C631.123 55.5088 632.111 55.4318 633.099 55.4318C636.268 55.4318 639.526 56.2785 642.99 57.9847C647.882 60.389 651.871 64.0647 655.112 69.1366C655.469 69.6953 655.17 70.4331 654.527 70.5951C653.677 70.8095 652.839 71.001 652.008 71.1467Z" fill="white"/>
<path d="M87.1793 89.2424C87.2626 88.7635 87.6783 88.414 88.1644 88.414H111.723C140.523 88.414 159.06 66.4003 162.729 44.207C166.219 22.1933 155.943 0 127.695 0H77.3487C76.8632 0 76.4478 0.34874 76.3638 0.826928L54.1499 127.24C54.0424 127.852 54.5133 128.413 55.1348 128.413H79.5168C80.0028 128.413 80.4185 128.064 80.5019 127.585L87.1793 89.2424ZM99.0616 22.7321H123.833C145.488 22.7321 137.778 66.0282 115.944 66.0282H92.5583C91.9359 66.0282 91.4647 65.4657 91.5738 64.8529L99.0722 22.7447C99.0733 22.7381 99.0683 22.7321 99.0616 22.7321Z" fill="white"/>
<path d="M177.957 128.4C177.95 128.4 177.945 128.394 177.946 128.388L186.385 80.8836C189.435 63.4743 206.007 57.6583 218.58 63.9402C219.049 64.1746 219.626 64.0321 219.911 63.5917L231.41 45.823C231.678 45.4096 231.606 44.8608 231.226 44.5471C226.164 40.3642 219.476 38.6907 212.799 38.6907C204.749 38.6907 196.267 41.4867 190.759 48.6521C190.158 49.4328 188.79 49.0926 188.72 48.1102L188.286 42.0058C188.248 41.4824 187.813 41.0768 187.288 41.0768H169.251C168.766 41.0768 168.351 41.4251 168.267 41.903L153.212 127.227C153.104 127.839 153.575 128.4 154.197 128.4H177.957Z" fill="white"/>
<path d="M250.04 130.427C282.15 130.427 298.66 103.282 298.66 75.0211C298.66 54.8419 288.757 38.7036 266.191 38.7036C234.454 38.7036 217.764 66.0411 217.764 94.2895C217.764 114.469 227.667 130.427 250.053 130.427H250.04ZM262.503 59.4409C262.507 59.4368 262.513 59.4345 262.519 59.4345C270.76 59.4422 272.965 69.7129 272.965 77.2276C272.965 87.1312 268.013 109.889 253.696 109.889C245.448 109.889 243.421 99.6133 243.421 92.0958C243.421 82.002 248.37 59.4571 262.487 59.4473C262.493 59.4473 262.499 59.445 262.503 59.4409Z" fill="white"/>
<path d="M290.67 167.146C290.609 167.246 290.566 167.355 290.543 167.469L290.449 167.932C290.324 168.552 290.797 169.131 291.429 169.131H316.067C316.418 169.131 316.743 168.947 316.924 168.646L392.869 42.3148C392.922 42.2258 392.958 42.1275 392.975 42.0251C393.056 41.5281 392.672 41.0769 392.168 41.0769H366.728C366.378 41.0769 366.053 41.2601 365.872 41.5599L349.102 69.3252L338.134 93.3461C337.712 94.2711 336.339 94.0486 336.23 93.0376L333.682 69.3252L327.08 41.8433C326.972 41.3938 326.57 41.0769 326.107 41.0769H301.143C300.657 41.0769 300.241 41.4263 300.158 41.9051L300.145 41.9759C300.122 42.1106 300.126 42.2488 300.158 42.3817L318.909 120.301C318.971 120.559 318.929 120.83 318.791 121.056L290.67 167.146Z" fill="white"/>
<path d="M413.308 130.427C427.331 130.427 441.711 126.199 451.263 109.438C451.566 108.905 451.312 108.227 450.735 108.021L432.639 101.544C432.175 101.378 431.661 101.577 431.408 102C428.102 107.537 423.114 110.068 416.785 110.068C406.621 110.068 403.21 104.346 404.383 94.4212C404.442 93.9264 404.866 93.5582 405.364 93.5582H423.943C450.357 93.5582 460.273 79.6137 459.901 63.8346C459.722 51.1729 450.909 39.4348 428.343 39.4348C394.771 39.4348 380.647 66.7723 380.095 94.8411C379.723 115.752 389.819 130.427 413.296 130.427H413.308ZM425.046 60.1657C432.756 60.1657 435.681 63.4626 435.874 67.1444C435.874 70.6337 433.667 75.2135 426.329 75.2135H408.786C408.171 75.2135 407.7 74.6596 407.838 74.0598C410.031 64.5802 419.568 60.1657 425.046 60.1657Z" fill="white"/>
<path d="M490.164 130.979C508.303 130.979 523.465 119.552 530.46 102.359C530.693 101.785 530.34 101.145 529.733 101.025L510.418 97.1946C509.95 97.1016 509.483 97.3534 509.289 97.7899C506.627 103.778 501.606 109.696 494.564 109.696C487.226 109.696 484.468 101.255 484.468 91.9032C484.468 76.6758 492.178 59.6139 503.544 59.6139C510.457 59.6139 513.305 65.3061 514.062 71.028C514.138 71.5989 514.659 72.0112 515.229 71.926L535.348 68.9127C535.835 68.8399 536.197 68.4178 536.195 67.9262C536.134 48.6536 527.996 38.1519 507.213 38.1519C473.641 38.1519 459.337 67.683 459.337 95.0206C459.337 114.097 467.958 130.979 490.151 130.979H490.164Z" fill="white"/>
<path d="M567.391 95.5655C567.391 95.5662 567.392 95.5663 567.393 95.5656L573.66 60.0681C573.744 59.5902 574.159 59.2419 574.644 59.2419H595.348C595.835 59.2419 596.251 58.8911 596.334 58.4111L599.108 42.2459C599.213 41.635 598.742 41.0768 598.122 41.0768H578.116C577.494 41.0768 577.023 40.5146 577.131 39.902L582.218 11.2451C582.327 10.6324 581.855 10.0703 581.233 10.0703H579.262C579.174 10.0703 579.086 10.082 579.001 10.105L557.357 15.9595C556.983 16.0607 556.701 16.3692 556.633 16.7511L552.489 40.2504C552.405 40.7284 551.99 41.0768 551.504 41.0768H539.973C539.486 41.0768 539.07 41.4276 538.988 41.9076L536.213 58.0728C536.109 58.6837 536.579 59.2419 537.199 59.2419H548.036C548.657 59.2419 549.128 59.8025 549.021 60.4145L542.799 95.9314C539.13 116.842 544.454 130.414 567.019 130.414C574.131 130.414 579.688 130.065 586.541 126.703C586.934 126.511 587.148 126.08 587.073 125.648L584.279 109.541C584.175 108.94 583.559 108.573 582.976 108.752C570.359 112.627 564.712 109.464 567.39 95.5656C567.39 95.5649 567.391 95.5648 567.391 95.5655Z" fill="white"/>
<path d="M104.173 137.147C104.284 136.533 103.812 135.969 103.189 135.969H4.87662C4.39286 135.969 3.97846 136.316 3.89253 136.792L0.212584 157.177C0.101841 157.791 0.573286 158.355 1.19668 158.355H35.6776C36.2993 158.355 36.7703 158.916 36.6625 159.528L18.3718 263.401C18.264 264.014 18.735 264.575 19.3566 264.575H43.7398C44.2251 264.575 44.6404 264.226 44.7246 263.748L63.1501 159.181C63.2344 158.703 63.6496 158.355 64.135 158.355H99.5088C99.9926 158.355 100.407 158.009 100.493 157.533L104.173 137.147Z" fill="white"/>
<path d="M137.406 177.069C137.406 177.067 137.403 177.066 137.402 177.068L133.719 185.135C133.338 185.97 132.078 185.908 131.682 185.08C128.338 178.098 121.206 175.423 113.917 175.596C94.2894 175.968 75.2134 190.824 70.9928 220.355C67.8755 242.189 73.0069 265.665 97.9583 266.037C105.31 266.201 113.428 263.479 119.257 256.338C119.848 255.614 121.09 255.932 121.19 256.862L121.903 263.502C121.958 264.01 122.386 264.395 122.897 264.395H141.339C141.824 264.395 142.24 264.047 142.324 263.569L157.378 178.245C157.486 177.633 157.015 177.072 156.393 177.072H137.408C137.407 177.072 137.406 177.071 137.406 177.069ZM125.296 221.266C122.538 234.838 115.392 245.114 106.399 245.114C94.469 245.114 94.6614 231.901 96.1239 221.997C97.7787 208.424 104.565 196.314 115.02 196.314C127.13 196.314 127.13 212.273 125.296 221.266Z" fill="white"/>
<path d="M175.294 135.969C174.809 135.969 174.393 136.318 174.309 136.796L152.095 263.209C151.988 263.822 152.459 264.382 153.08 264.382H176.001C176.487 264.382 176.902 264.034 176.986 263.556L199.2 137.142C199.308 136.53 198.837 135.969 198.215 135.969H175.294Z" fill="white"/>
<path d="M234.441 229.527C260.855 229.527 270.771 215.583 270.399 199.804C270.219 187.142 261.406 175.404 238.841 175.404C205.269 175.404 191.145 202.742 190.593 230.81C190.221 251.721 200.317 266.397 223.793 266.397C237.815 266.397 252.195 262.168 261.748 245.407C262.051 244.875 261.796 244.197 261.219 243.99L243.123 237.513C242.659 237.347 242.145 237.546 241.893 237.969C238.586 243.506 233.599 246.038 227.27 246.038C217.105 246.038 213.694 240.315 214.868 230.39C214.926 229.896 215.35 229.527 215.849 229.527H234.428H234.441ZM235.544 196.135C243.254 196.135 246.179 199.432 246.371 203.114C246.371 206.603 244.165 211.183 236.827 211.183H219.284C218.668 211.183 218.197 210.629 218.336 210.029C220.529 200.549 230.066 196.135 235.544 196.135Z" fill="white"/>
<path d="M329.66 174.859C329.656 174.863 329.65 174.865 329.645 174.865C319.955 174.867 312.789 177.228 305.949 185.034C305.353 185.715 304.195 185.37 304.113 184.469L303.516 177.98C303.469 177.465 303.037 177.072 302.52 177.072H282.809C282.324 177.072 281.909 177.42 281.824 177.898L266.77 263.221C266.662 263.834 267.133 264.395 267.755 264.395H290.856C291.341 264.395 291.756 264.047 291.84 263.569L300.495 214.672C301.957 206.603 306.178 195.955 316.094 195.955C327.652 195.955 326.729 206.59 325.266 214.852L316.675 263.207C316.566 263.82 317.037 264.382 317.659 264.382H340.936C341.422 264.382 341.838 264.033 341.921 263.554L350.397 215.031C353.886 195.586 352.963 174.858 329.676 174.852C329.67 174.852 329.664 174.855 329.66 174.859Z" fill="white"/>
<path d="M329.93 174.461C329.925 174.465 329.92 174.467 329.914 174.467C320.224 174.469 313.058 176.83 306.219 184.636C305.622 185.317 304.465 184.972 304.382 184.071L303.785 177.582C303.738 177.068 303.306 176.674 302.789 176.674H283.079C282.593 176.674 282.178 177.022 282.094 177.5L267.04 262.824C266.932 263.436 267.403 263.997 268.024 263.997H291.125C291.61 263.997 292.025 263.649 292.11 263.172L300.764 214.274C302.226 206.205 306.447 195.557 316.363 195.557C327.922 195.557 326.998 206.192 325.536 214.454L316.944 262.81C316.835 263.422 317.307 263.985 317.929 263.985H341.206C341.692 263.985 342.107 263.635 342.191 263.157L350.667 214.633C354.156 195.188 353.233 174.46 329.945 174.455C329.94 174.455 329.934 174.457 329.93 174.461Z" fill="white"/>
<path d="M387.061 231.547C387.061 231.548 387.062 231.548 387.062 231.548L393.33 196.05C393.414 195.572 393.829 195.224 394.314 195.224H415.018C415.505 195.224 415.921 194.873 416.004 194.393L418.778 178.228C418.883 177.617 418.412 177.059 417.792 177.059H397.786C397.164 177.059 396.693 176.497 396.801 175.884L401.888 147.227C401.996 146.614 401.525 146.052 400.903 146.052H398.932C398.844 146.052 398.756 146.064 398.671 146.087L377.027 151.941C376.653 152.043 376.371 152.351 376.303 152.733L372.159 176.232C372.075 176.71 371.66 177.059 371.174 177.059H359.643C359.156 177.059 358.74 177.41 358.657 177.89L355.883 194.055C355.779 194.666 356.249 195.224 356.869 195.224H367.706C368.327 195.224 368.798 195.784 368.691 196.396L362.469 231.913C358.8 252.824 364.124 266.396 386.689 266.396C393.801 266.396 399.358 266.047 406.211 262.685C406.604 262.493 406.817 262.062 406.743 261.63L403.949 245.523C403.845 244.922 403.229 244.555 402.646 244.734C390.029 248.609 384.382 245.446 387.06 231.548C387.06 231.547 387.061 231.547 387.061 231.547Z" fill="white"/>
<path d="M536.815 165.257C536.818 165.259 536.815 165.264 536.811 165.262C534.815 164.367 532.73 163.573 530.939 162.357C522.024 156.341 516.495 147.9 513.711 137.586C513.326 136.162 512.915 135.648 511.748 135.648C511.543 135.648 511.312 135.661 511.055 135.7C507.04 136.162 503.012 136.623 498.996 137.085C497.059 137.303 496.649 137.791 496.751 139.728C497.085 146.168 495.687 152.184 492.262 157.688C488.926 163.05 484.282 167.027 478.869 170.157C478.099 170.606 477.791 171.145 477.842 172.043C478.009 174.904 478.15 177.764 478.291 180.625C478.355 182.049 478.432 183.473 478.509 184.897C478.586 186.372 478.856 186.873 479.946 186.873C480.19 186.873 480.485 186.847 480.818 186.796C482.204 186.603 483.512 186.282 484.77 185.872C489.401 184.371 493.198 181.459 496.328 177.495C497.052 176.576 497.67 175.574 498.259 174.571C498.739 173.752 499.886 174.016 499.897 174.966C499.915 176.37 499.842 177.813 499.676 179.252C498.979 185.462 497.027 190.996 493.351 195.619C493.181 195.833 492.848 195.819 492.711 195.583C492.441 195.16 492.159 194.736 491.877 194.339C491.556 193.877 491.248 193.428 490.927 192.992C490.863 192.902 490.786 192.799 490.722 192.697C490.632 192.581 490.542 192.466 490.453 192.35C489.967 191.699 489.494 191.072 489.021 190.497C489.018 190.493 489.018 190.49 489.013 190.491C489.002 190.492 488.984 190.496 488.977 190.487C488.697 190.141 488.417 189.801 488.134 189.466C487.858 189.14 487.404 189.035 487.005 189.185C485.193 189.867 483.308 190.344 481.332 190.619C480.793 190.696 480.357 190.721 479.946 190.721C478.445 190.721 474.93 190.17 474.674 185.089C474.597 183.717 474.533 182.344 474.468 180.972C474.428 180.238 474.387 179.504 474.353 178.77C474.336 178.417 474.136 178.098 473.824 177.933C472.574 177.275 471.303 176.654 469.991 176.122C461.884 172.8 453.866 172.043 446.156 173.865C437.933 175.802 432.147 180.535 428.966 187.937C425.618 195.724 426.413 203.562 431.326 211.247C435.649 218.02 442.141 222.831 450.62 225.551C460.032 228.57 469.782 228.922 479.659 226.585C480.356 226.419 481.009 227.004 480.866 227.706C479.613 233.838 476.009 240.571 468.798 244.793C459.344 250.322 450.146 250.207 441.435 244.447C430.916 237.481 427.298 227.308 430.698 214.236L431.066 212.818C431.198 212.309 430.914 211.784 430.415 211.618L414.23 206.207C413.714 206.035 413.155 206.306 412.972 206.818L412.391 208.437C412.34 208.578 412.302 208.694 412.263 208.797C408.953 219.213 409.274 229.515 413.225 239.418C420.217 256.942 437.099 268 455.367 268C458.33 268 461.345 267.705 464.347 267.102C477.958 264.357 488.349 256.724 495.238 244.408C499.356 237.032 501.293 229.207 501.062 221.099C501.049 220.445 501.011 219.791 500.959 219.123C500.921 218.597 500.882 218.071 500.818 217.546C500.792 217.302 500.741 217.058 500.703 216.814C500.601 216.13 500.512 215.457 500.386 214.748C500.383 214.732 500.382 214.715 500.38 214.698C500.369 214.616 500.393 214.538 500.455 214.484C502.855 212.401 505.092 210.069 507.13 207.475C511.735 201.625 514.801 195.301 516.302 188.566C517.508 183.152 517.726 177.469 516.905 171.517C516.881 171.324 517.158 171.224 517.262 171.388C519.368 174.682 521.937 177.506 525.256 179.612C528.399 181.6 531.799 182.575 535.429 182.575C535.943 182.575 536.456 182.549 536.982 182.511C538.316 182.408 539.06 181.664 539.009 180.42C538.867 176.135 538.713 171.85 538.534 167.566C538.483 166.276 537.987 165.787 536.819 165.251C536.816 165.25 536.812 165.254 536.815 165.257ZM473.224 208.052C467.105 209.156 461.537 208.809 456.175 206.988C452.198 205.641 449.35 203.511 447.49 200.509C445.912 197.956 446.336 196.404 446.874 195.327C447.644 193.8 448.991 192.979 451.364 192.581C452.339 192.415 453.327 192.338 454.315 192.338C457.483 192.338 460.742 193.184 464.206 194.89C469.098 197.295 473.087 200.97 476.328 206.042C476.685 206.601 476.386 207.339 475.743 207.501C474.893 207.715 474.055 207.907 473.224 208.052Z" fill="white"/>
</svg>
